<?xml version="1.0" standalone="no"?>
<!DOCTYPE svg PUBLIC "-//W3C//DTD SVG 20010904//EN"
 "http://www.w3.org/TR/2001/REC-SVG-20010904/DTD/svg10.dtd">
<svg version="1.0" xmlns="http://www.w3.org/2000/svg"
 width="663.000000pt" height="215.000000pt" viewBox="0 0 663.000000 215.000000"
 preserveAspectRatio="xMidYMid meet">

<g transform="translate(0.000000,215.000000) scale(0.100000,-0.100000)"
fill="#000000" stroke="none">
<path d="M858 1903 c-25 -32 -106 -143 -182 -246 l-138 -188 184 -247 c101
-136 188 -255 193 -264 32 -56 342 -467 350 -464 17 5 206 268 233 326 24 48
27 67 27 155 0 126 -10 150 -144 333 -55 75 -184 252 -287 392 -102 140 -187
256 -189 258 -1 2 -23 -23 -47 -55z"/>
<path d="M1960 1045 l0 -415 163 0 c89 0 193 5 232 10 139 21 232 86 291 205
31 63 37 86 42 163 8 145 -28 253 -114 339 -89 89 -184 112 -451 113 l-163 0
0 -415z m445 235 c95 -49 149 -173 126 -289 -17 -86 -56 -140 -125 -176 -55
-28 -66 -30 -175 -30 l-116 0 -3 264 -2 263 123 -3 c108 -4 129 -7 172 -29z"/>
<path d="M5610 1372 c-19 -1 -49 -5 -67 -7 l-32 -6 -3 -72 -3 -72 -52 -3 -53
-3 0 -59 0 -59 53 -3 52 -3 5 -170 c5 -155 7 -173 28 -207 36 -58 95 -82 193
-76 44 3 84 9 90 15 8 8 5 28 -7 67 l-18 56 -37 -6 c-53 -9 -84 1 -97 31 -7
16 -12 79 -12 160 l0 135 80 0 80 0 0 60 0 60 -80 0 -79 0 -3 83 -3 82 -35 -3z"/>
<path d="M4360 1224 c-165 -31 -259 -180 -229 -362 24 -150 111 -231 259 -240
63 -4 85 -1 128 18 29 13 61 33 71 46 l19 24 6 -40 6 -40 65 0 65 0 0 290 0
290 -70 0 -70 0 0 -37 c-1 -31 -3 -35 -11 -21 -19 34 -93 68 -155 72 -32 3
-70 2 -84 0z m132 -134 c77 -22 131 -124 109 -208 -16 -62 -37 -88 -87 -113
-59 -28 -129 -23 -177 14 -100 76 -87 239 23 295 49 24 77 27 132 12z"/>
<path d="M4990 1211 c-126 -45 -170 -174 -89 -265 37 -43 86 -63 188 -75 100
-13 121 -23 121 -60 0 -82 -152 -92 -263 -17 l-36 25 -36 -51 c-34 -46 -35
-51 -20 -67 31 -35 112 -71 182 -81 201 -28 341 67 318 216 -13 89 -83 137
-222 152 -90 11 -119 22 -128 53 -20 62 109 91 199 45 l50 -25 35 41 c20 23
36 47 36 53 0 5 -24 23 -54 39 -73 39 -198 47 -281 17z"/>
<path d="M3695 1206 c-16 -7 -44 -25 -62 -40 l-32 -27 -7 36 -6 35 -64 0 -64
0 0 -290 0 -290 70 0 70 0 0 151 c0 82 5 170 11 193 33 131 202 158 259 42 18
-38 20 -62 20 -214 l0 -172 70 0 70 0 0 188 c0 204 -5 234 -50 305 -40 63
-109 97 -195 97 -33 -1 -73 -7 -90 -14z"/>
<path d="M2764 1193 c41 -114 192 -461 197 -456 5 5 23 42 42 83 l34 75 -56
157 -56 158 -84 0 c-75 0 -83 -2 -77 -17z"/>
<path d="M3226 1201 c-8 -12 -346 -802 -346 -807 0 -2 35 -4 78 -4 l78 0 141
328 c78 180 158 364 177 410 l35 82 -79 0 c-43 0 -81 -4 -84 -9z"/>
<path d="M5913 1203 c3 -4 46 -109 97 -233 51 -124 96 -229 100 -233 3 -4 24
29 44 73 l38 81 -54 157 -55 157 -87 3 c-48 1 -86 -1 -83 -5z"/>
<path d="M6215 818 c-92 -216 -170 -401 -173 -411 -4 -16 3 -18 74 -15 l78 3
173 400 c95 220 173 403 173 408 0 4 -35 7 -78 7 l-79 0 -168 -392z"/>
</g>
</svg>
